<?xml version="1.0" standalone="no"?>
<!DOCTYPE svg PUBLIC "-//W3C//DTD SVG 1.1//EN" "http://www.w3.org/Graphics/SVG/1.1/DTD/svg11.dtd">

<svg width="1322.0" height="762.0" viewBox="0 0 1322.0 762.0" version="1.1" xmlns="http://www.w3.org/2000/svg" xmlns:xlink="http://www.w3.org/1999/xlink">
<!-- automatically generated by aafigure --><text x="17.0" y="14.9" font-family="monospace" font-size="14.0" fill="#000000" >
  rst
</text>
<text x="17.0" y="42.9" font-family="monospace" font-size="14.0" fill="#000000" >
  clk
</text>
<text x="3.0" y="70.89999999999999" font-family="monospace" font-size="14.0" fill="#000000" >
  &lt;bus_name&gt;
</text>
<text x="3.0" y="112.89999999999999" font-family="monospace" font-size="14.0" fill="#000000" >
  &lt;bus_name&gt;_stb
</text>
<text x="3.0" y="140.9" font-family="monospace" font-size="14.0" fill="#000000" >
  &lt;bus_name&gt;_ack
</text>
<text x="409.0" y="168.9" font-family="monospace" font-size="14.0" fill="#000000" >
  RX adds wait states
</text>
<text x="479.0" y="210.9" font-family="monospace" font-size="14.0" fill="#000000" >
  Data transfers
</text>
<text x="17.0" y="252.90000000000003" font-family="monospace" font-size="14.0" fill="#000000" >
  rst
</text>
<text x="17.0" y="280.90000000000003" font-family="monospace" font-size="14.0" fill="#000000" >
  clk
</text>
<text x="3.0" y="308.90000000000003" font-family="monospace" font-size="14.0" fill="#000000" >
  &lt;bus_name&gt;
</text>
<text x="3.0" y="350.90000000000003" font-family="monospace" font-size="14.0" fill="#000000" >
  &lt;bus_name&gt;_stb
</text>
<text x="3.0" y="378.90000000000003" font-family="monospace" font-size="14.0" fill="#000000" >
  &lt;bus_name&gt;_ack
</text>
<text x="409.0" y="420.90000000000003" font-family="monospace" font-size="14.0" fill="#000000" >
  TX adds wait states
</text>
<text x="479.0" y="462.90000000000003" font-family="monospace" font-size="14.0" fill="#000000" >
  Data transfers
</text>
<text x="17.0" y="518.9" font-family="monospace" font-size="14.0" fill="#000000" >
  rst
</text>
<text x="17.0" y="546.9" font-family="monospace" font-size="14.0" fill="#000000" >
  clk
</text>
<text x="3.0" y="588.9" font-family="monospace" font-size="14.0" fill="#000000" >
  &lt;bus_name&gt;
</text>
<text x="3.0" y="630.9" font-family="monospace" font-size="14.0" fill="#000000" >
  &lt;bus_name&gt;_stb
</text>
<text x="3.0" y="658.9" font-family="monospace" font-size="14.0" fill="#000000" >
  &lt;bus_name&gt;_ack
</text>
<text x="423.0" y="686.9" font-family="monospace" font-size="14.0" fill="#000000" >
  TX adds wait states
</text>
<text x="535.0" y="714.9" font-family="monospace" font-size="14.0" fill="#000000" >
  Data transfers
</text>
<text x="591.0" y="742.9" font-family="monospace" font-size="14.0" fill="#000000" >
  stb and ack needn't return to 0 between data words
</text>
<line x1="248.0" y1="17.0" x2="808.0" y2="17.0" stroke="#000000" stroke-width="2.0" />
<line x1="276.0" y1="31.0" x2="304.0" y2="31.0" stroke="#000000" stroke-width="2.0" />
<line x1="332.0" y1="31.0" x2="360.0" y2="31.0" stroke="#000000" stroke-width="2.0" />
<line x1="388.0" y1="31.0" x2="416.0" y2="31.0" stroke="#000000" stroke-width="2.0" />
<line x1="444.0" y1="31.0" x2="472.0" y2="31.0" stroke="#000000" stroke-width="2.0" />
<line x1="500.0" y1="31.0" x2="528.0" y2="31.0" stroke="#000000" stroke-width="2.0" />
<line x1="556.0" y1="31.0" x2="584.0" y2="31.0" stroke="#000000" stroke-width="2.0" />
<line x1="612.0" y1="31.0" x2="640.0" y2="31.0" stroke="#000000" stroke-width="2.0" />
<line x1="668.0" y1="31.0" x2="696.0" y2="31.0" stroke="#000000" stroke-width="2.0" />
<line x1="724.0" y1="31.0" x2="752.0" y2="31.0" stroke="#000000" stroke-width="2.0" />
<line x1="780.0" y1="31.0" x2="808.0" y2="31.0" stroke="#000000" stroke-width="2.0" />
<line x1="248.0" y1="45.0" x2="276.0" y2="45.0" stroke="#000000" stroke-width="2.0" />
<line x1="276.0" y1="31.0" x2="276.0" y2="45.0" stroke="#000000" stroke-width="2.0" />
<line x1="304.0" y1="31.0" x2="304.0" y2="45.0" stroke="#000000" stroke-width="2.0" />
<line x1="304.0" y1="45.0" x2="332.0" y2="45.0" stroke="#000000" stroke-width="2.0" />
<line x1="332.0" y1="31.0" x2="332.0" y2="45.0" stroke="#000000" stroke-width="2.0" />
<line x1="360.0" y1="31.0" x2="360.0" y2="45.0" stroke="#000000" stroke-width="2.0" />
<line x1="360.0" y1="45.0" x2="388.0" y2="45.0" stroke="#000000" stroke-width="2.0" />
<line x1="388.0" y1="31.0" x2="388.0" y2="45.0" stroke="#000000" stroke-width="2.0" />
<line x1="416.0" y1="31.0" x2="416.0" y2="45.0" stroke="#000000" stroke-width="2.0" />
<line x1="416.0" y1="45.0" x2="444.0" y2="45.0" stroke="#000000" stroke-width="2.0" />
<line x1="444.0" y1="31.0" x2="444.0" y2="45.0" stroke="#000000" stroke-width="2.0" />
<line x1="472.0" y1="31.0" x2="472.0" y2="45.0" stroke="#000000" stroke-width="2.0" />
<line x1="472.0" y1="45.0" x2="500.0" y2="45.0" stroke="#000000" stroke-width="2.0" />
<line x1="500.0" y1="31.0" x2="500.0" y2="45.0" stroke="#000000" stroke-width="2.0" />
<line x1="528.0" y1="31.0" x2="528.0" y2="45.0" stroke="#000000" stroke-width="2.0" />
<line x1="528.0" y1="45.0" x2="556.0" y2="45.0" stroke="#000000" stroke-width="2.0" />
<line x1="556.0" y1="31.0" x2="556.0" y2="45.0" stroke="#000000" stroke-width="2.0" />
<line x1="584.0" y1="31.0" x2="584.0" y2="45.0" stroke="#000000" stroke-width="2.0" />
<line x1="584.0" y1="45.0" x2="612.0" y2="45.0" stroke="#000000" stroke-width="2.0" />
<line x1="612.0" y1="31.0" x2="612.0" y2="45.0" stroke="#000000" stroke-width="2.0" />
<line x1="640.0" y1="31.0" x2="640.0" y2="45.0" stroke="#000000" stroke-width="2.0" />
<line x1="640.0" y1="45.0" x2="668.0" y2="45.0" stroke="#000000" stroke-width="2.0" />
<line x1="668.0" y1="31.0" x2="668.0" y2="45.0" stroke="#000000" stroke-width="2.0" />
<line x1="696.0" y1="31.0" x2="696.0" y2="45.0" stroke="#000000" stroke-width="2.0" />
<line x1="696.0" y1="45.0" x2="724.0" y2="45.0" stroke="#000000" stroke-width="2.0" />
<line x1="724.0" y1="31.0" x2="724.0" y2="45.0" stroke="#000000" stroke-width="2.0" />
<line x1="752.0" y1="31.0" x2="752.0" y2="45.0" stroke="#000000" stroke-width="2.0" />
<line x1="752.0" y1="45.0" x2="780.0" y2="45.0" stroke="#000000" stroke-width="2.0" />
<line x1="780.0" y1="31.0" x2="780.0" y2="45.0" stroke="#000000" stroke-width="2.0" />
<line x1="248.0" y1="59.0" x2="808.0" y2="59.0" stroke="#000000" stroke-width="2.0" />
<line x1="332.0" y1="59.0" x2="332.0" y2="73.0" stroke="#000000" stroke-width="2.0" />
<line x1="444.0" y1="59.0" x2="444.0" y2="73.0" stroke="#000000" stroke-width="2.0" />
<line x1="248.0" y1="73.0" x2="808.0" y2="73.0" stroke="#000000" stroke-width="2.0" />
<line x1="332.0" y1="101.0" x2="444.0" y2="101.0" stroke="#000000" stroke-width="2.0" />
<line x1="248.0" y1="115.0" x2="332.0" y2="115.0" stroke="#000000" stroke-width="2.0" />
<line x1="332.0" y1="101.0" x2="332.0" y2="115.0" stroke="#000000" stroke-width="2.0" />
<line x1="444.0" y1="101.0" x2="444.0" y2="115.0" stroke="#000000" stroke-width="2.0" />
<line x1="444.0" y1="115.0" x2="808.0" y2="115.0" stroke="#000000" stroke-width="2.0" />
<line x1="388.0" y1="129.0" x2="444.0" y2="129.0" stroke="#000000" stroke-width="2.0" />
<line x1="248.0" y1="143.0" x2="388.0" y2="143.0" stroke="#000000" stroke-width="2.0" />
<line x1="388.0" y1="129.0" x2="388.0" y2="143.0" stroke="#000000" stroke-width="2.0" />
<line x1="444.0" y1="129.0" x2="444.0" y2="143.0" stroke="#000000" stroke-width="2.0" />
<line x1="444.0" y1="143.0" x2="808.0" y2="143.0" stroke="#000000" stroke-width="2.0" />
<g>
    <line x1="346.0" y1="157.0" x2="349.5" y2="167.5" stroke="#000000" stroke-width="2.0" />
    <line x1="346.0" y1="157.0" x2="342.5" y2="167.5" stroke="#000000" stroke-width="2.0" />
    <line x1="346.0" y1="157.0" x2="346.0" y2="185.0" stroke="#000000" stroke-width="2.0" />
</g>
<g>
    <line x1="360.0" y1="157.0" x2="363.5" y2="167.5" stroke="#000000" stroke-width="2.0" />
    <line x1="360.0" y1="157.0" x2="356.5" y2="167.5" stroke="#000000" stroke-width="2.0" />
    <line x1="360.0" y1="157.0" x2="360.0" y2="185.0" stroke="#000000" stroke-width="2.0" />
</g>
<g>
    <line x1="374.0" y1="157.0" x2="377.5" y2="167.5" stroke="#000000" stroke-width="2.0" />
    <line x1="374.0" y1="157.0" x2="370.5" y2="167.5" stroke="#000000" stroke-width="2.0" />
    <line x1="374.0" y1="157.0" x2="374.0" y2="185.0" stroke="#000000" stroke-width="2.0" />
</g>
<g>
    <line x1="388.0" y1="157.0" x2="391.5" y2="167.5" stroke="#000000" stroke-width="2.0" />
    <line x1="388.0" y1="157.0" x2="384.5" y2="167.5" stroke="#000000" stroke-width="2.0" />
    <line x1="388.0" y1="157.0" x2="388.0" y2="185.0" stroke="#000000" stroke-width="2.0" />
</g>
<g>
    <line x1="402.0" y1="199.0" x2="405.5" y2="209.5" stroke="#000000" stroke-width="2.0" />
    <line x1="402.0" y1="199.0" x2="398.5" y2="209.5" stroke="#000000" stroke-width="2.0" />
    <line x1="402.0" y1="199.0" x2="402.0" y2="227.0" stroke="#000000" stroke-width="2.0" />
</g>
<g>
    <line x1="416.0" y1="199.0" x2="419.5" y2="209.5" stroke="#000000" stroke-width="2.0" />
    <line x1="416.0" y1="199.0" x2="412.5" y2="209.5" stroke="#000000" stroke-width="2.0" />
    <line x1="416.0" y1="199.0" x2="416.0" y2="227.0" stroke="#000000" stroke-width="2.0" />
</g>
<g>
    <line x1="430.0" y1="199.0" x2="433.5" y2="209.5" stroke="#000000" stroke-width="2.0" />
    <line x1="430.0" y1="199.0" x2="426.5" y2="209.5" stroke="#000000" stroke-width="2.0" />
    <line x1="430.0" y1="199.0" x2="430.0" y2="227.0" stroke="#000000" stroke-width="2.0" />
</g>
<g>
    <line x1="444.0" y1="199.0" x2="447.5" y2="209.5" stroke="#000000" stroke-width="2.0" />
    <line x1="444.0" y1="199.0" x2="440.5" y2="209.5" stroke="#000000" stroke-width="2.0" />
    <line x1="444.0" y1="199.0" x2="444.0" y2="227.0" stroke="#000000" stroke-width="2.0" />
</g>
<line x1="248.0" y1="255.0" x2="808.0" y2="255.0" stroke="#000000" stroke-width="2.0" />
<line x1="276.0" y1="269.0" x2="304.0" y2="269.0" stroke="#000000" stroke-width="2.0" />
<line x1="332.0" y1="269.0" x2="360.0" y2="269.0" stroke="#000000" stroke-width="2.0" />
<line x1="388.0" y1="269.0" x2="416.0" y2="269.0" stroke="#000000" stroke-width="2.0" />
<line x1="444.0" y1="269.0" x2="472.0" y2="269.0" stroke="#000000" stroke-width="2.0" />
<line x1="500.0" y1="269.0" x2="528.0" y2="269.0" stroke="#000000" stroke-width="2.0" />
<line x1="556.0" y1="269.0" x2="584.0" y2="269.0" stroke="#000000" stroke-width="2.0" />
<line x1="612.0" y1="269.0" x2="640.0" y2="269.0" stroke="#000000" stroke-width="2.0" />
<line x1="668.0" y1="269.0" x2="696.0" y2="269.0" stroke="#000000" stroke-width="2.0" />
<line x1="724.0" y1="269.0" x2="752.0" y2="269.0" stroke="#000000" stroke-width="2.0" />
<line x1="780.0" y1="269.0" x2="808.0" y2="269.0" stroke="#000000" stroke-width="2.0" />
<line x1="248.0" y1="283.0" x2="276.0" y2="283.0" stroke="#000000" stroke-width="2.0" />
<line x1="276.0" y1="269.0" x2="276.0" y2="283.0" stroke="#000000" stroke-width="2.0" />
<line x1="304.0" y1="269.0" x2="304.0" y2="283.0" stroke="#000000" stroke-width="2.0" />
<line x1="304.0" y1="283.0" x2="332.0" y2="283.0" stroke="#000000" stroke-width="2.0" />
<line x1="332.0" y1="269.0" x2="332.0" y2="283.0" stroke="#000000" stroke-width="2.0" />
<line x1="360.0" y1="269.0" x2="360.0" y2="283.0" stroke="#000000" stroke-width="2.0" />
<line x1="360.0" y1="283.0" x2="388.0" y2="283.0" stroke="#000000" stroke-width="2.0" />
<line x1="388.0" y1="269.0" x2="388.0" y2="283.0" stroke="#000000" stroke-width="2.0" />
<line x1="416.0" y1="269.0" x2="416.0" y2="283.0" stroke="#000000" stroke-width="2.0" />
<line x1="416.0" y1="283.0" x2="444.0" y2="283.0" stroke="#000000" stroke-width="2.0" />
<line x1="444.0" y1="269.0" x2="444.0" y2="283.0" stroke="#000000" stroke-width="2.0" />
<line x1="472.0" y1="269.0" x2="472.0" y2="283.0" stroke="#000000" stroke-width="2.0" />
<line x1="472.0" y1="283.0" x2="500.0" y2="283.0" stroke="#000000" stroke-width="2.0" />
<line x1="500.0" y1="269.0" x2="500.0" y2="283.0" stroke="#000000" stroke-width="2.0" />
<line x1="528.0" y1="269.0" x2="528.0" y2="283.0" stroke="#000000" stroke-width="2.0" />
<line x1="528.0" y1="283.0" x2="556.0" y2="283.0" stroke="#000000" stroke-width="2.0" />
<line x1="556.0" y1="269.0" x2="556.0" y2="283.0" stroke="#000000" stroke-width="2.0" />
<line x1="584.0" y1="269.0" x2="584.0" y2="283.0" stroke="#000000" stroke-width="2.0" />
<line x1="584.0" y1="283.0" x2="612.0" y2="283.0" stroke="#000000" stroke-width="2.0" />
<line x1="612.0" y1="269.0" x2="612.0" y2="283.0" stroke="#000000" stroke-width="2.0" />
<line x1="640.0" y1="269.0" x2="640.0" y2="283.0" stroke="#000000" stroke-width="2.0" />
<line x1="640.0" y1="283.0" x2="668.0" y2="283.0" stroke="#000000" stroke-width="2.0" />
<line x1="668.0" y1="269.0" x2="668.0" y2="283.0" stroke="#000000" stroke-width="2.0" />
<line x1="696.0" y1="269.0" x2="696.0" y2="283.0" stroke="#000000" stroke-width="2.0" />
<line x1="696.0" y1="283.0" x2="724.0" y2="283.0" stroke="#000000" stroke-width="2.0" />
<line x1="724.0" y1="269.0" x2="724.0" y2="283.0" stroke="#000000" stroke-width="2.0" />
<line x1="752.0" y1="269.0" x2="752.0" y2="283.0" stroke="#000000" stroke-width="2.0" />
<line x1="752.0" y1="283.0" x2="780.0" y2="283.0" stroke="#000000" stroke-width="2.0" />
<line x1="780.0" y1="269.0" x2="780.0" y2="283.0" stroke="#000000" stroke-width="2.0" />
<line x1="248.0" y1="297.0" x2="808.0" y2="297.0" stroke="#000000" stroke-width="2.0" />
<line x1="332.0" y1="297.0" x2="332.0" y2="311.0" stroke="#000000" stroke-width="2.0" />
<line x1="444.0" y1="297.0" x2="444.0" y2="311.0" stroke="#000000" stroke-width="2.0" />
<line x1="248.0" y1="311.0" x2="808.0" y2="311.0" stroke="#000000" stroke-width="2.0" />
<line x1="388.0" y1="339.0" x2="444.0" y2="339.0" stroke="#000000" stroke-width="2.0" />
<line x1="248.0" y1="353.0" x2="388.0" y2="353.0" stroke="#000000" stroke-width="2.0" />
<line x1="388.0" y1="339.0" x2="388.0" y2="353.0" stroke="#000000" stroke-width="2.0" />
<line x1="444.0" y1="339.0" x2="444.0" y2="353.0" stroke="#000000" stroke-width="2.0" />
<line x1="444.0" y1="353.0" x2="808.0" y2="353.0" stroke="#000000" stroke-width="2.0" />
<line x1="332.0" y1="367.0" x2="444.0" y2="367.0" stroke="#000000" stroke-width="2.0" />
<line x1="248.0" y1="381.0" x2="332.0" y2="381.0" stroke="#000000" stroke-width="2.0" />
<line x1="332.0" y1="367.0" x2="332.0" y2="381.0" stroke="#000000" stroke-width="2.0" />
<line x1="444.0" y1="367.0" x2="444.0" y2="381.0" stroke="#000000" stroke-width="2.0" />
<line x1="444.0" y1="381.0" x2="808.0" y2="381.0" stroke="#000000" stroke-width="2.0" />
<g>
    <line x1="346.0" y1="409.0" x2="349.5" y2="419.5" stroke="#000000" stroke-width="2.0" />
    <line x1="346.0" y1="409.0" x2="342.5" y2="419.5" stroke="#000000" stroke-width="2.0" />
    <line x1="346.0" y1="409.0" x2="346.0" y2="437.0" stroke="#000000" stroke-width="2.0" />
</g>
<g>
    <line x1="360.0" y1="409.0" x2="363.5" y2="419.5" stroke="#000000" stroke-width="2.0" />
    <line x1="360.0" y1="409.0" x2="356.5" y2="419.5" stroke="#000000" stroke-width="2.0" />
    <line x1="360.0" y1="409.0" x2="360.0" y2="437.0" stroke="#000000" stroke-width="2.0" />
</g>
<g>
    <line x1="374.0" y1="409.0" x2="377.5" y2="419.5" stroke="#000000" stroke-width="2.0" />
    <line x1="374.0" y1="409.0" x2="370.5" y2="419.5" stroke="#000000" stroke-width="2.0" />
    <line x1="374.0" y1="409.0" x2="374.0" y2="437.0" stroke="#000000" stroke-width="2.0" />
</g>
<g>
    <line x1="388.0" y1="409.0" x2="391.5" y2="419.5" stroke="#000000" stroke-width="2.0" />
    <line x1="388.0" y1="409.0" x2="384.5" y2="419.5" stroke="#000000" stroke-width="2.0" />
    <line x1="388.0" y1="409.0" x2="388.0" y2="437.0" stroke="#000000" stroke-width="2.0" />
</g>
<g>
    <line x1="402.0" y1="451.0" x2="405.5" y2="461.5" stroke="#000000" stroke-width="2.0" />
    <line x1="402.0" y1="451.0" x2="398.5" y2="461.5" stroke="#000000" stroke-width="2.0" />
    <line x1="402.0" y1="451.0" x2="402.0" y2="479.0" stroke="#000000" stroke-width="2.0" />
</g>
<g>
    <line x1="416.0" y1="451.0" x2="419.5" y2="461.5" stroke="#000000" stroke-width="2.0" />
    <line x1="416.0" y1="451.0" x2="412.5" y2="461.5" stroke="#000000" stroke-width="2.0" />
    <line x1="416.0" y1="451.0" x2="416.0" y2="479.0" stroke="#000000" stroke-width="2.0" />
</g>
<g>
    <line x1="430.0" y1="451.0" x2="433.5" y2="461.5" stroke="#000000" stroke-width="2.0" />
    <line x1="430.0" y1="451.0" x2="426.5" y2="461.5" stroke="#000000" stroke-width="2.0" />
    <line x1="430.0" y1="451.0" x2="430.0" y2="479.0" stroke="#000000" stroke-width="2.0" />
</g>
<g>
    <line x1="444.0" y1="451.0" x2="447.5" y2="461.5" stroke="#000000" stroke-width="2.0" />
    <line x1="444.0" y1="451.0" x2="440.5" y2="461.5" stroke="#000000" stroke-width="2.0" />
    <line x1="444.0" y1="451.0" x2="444.0" y2="479.0" stroke="#000000" stroke-width="2.0" />
</g>
<line x1="248.0" y1="521.0" x2="808.0" y2="521.0" stroke="#000000" stroke-width="2.0" />
<line x1="276.0" y1="535.0" x2="318.0" y2="535.0" stroke="#000000" stroke-width="2.0" />
<line x1="360.0" y1="535.0" x2="402.0" y2="535.0" stroke="#000000" stroke-width="2.0" />
<line x1="444.0" y1="535.0" x2="486.0" y2="535.0" stroke="#000000" stroke-width="2.0" />
<line x1="528.0" y1="535.0" x2="570.0" y2="535.0" stroke="#000000" stroke-width="2.0" />
<line x1="612.0" y1="535.0" x2="654.0" y2="535.0" stroke="#000000" stroke-width="2.0" />
<line x1="696.0" y1="535.0" x2="738.0" y2="535.0" stroke="#000000" stroke-width="2.0" />
<line x1="780.0" y1="535.0" x2="808.0" y2="535.0" stroke="#000000" stroke-width="2.0" />
<line x1="248.0" y1="549.0" x2="276.0" y2="549.0" stroke="#000000" stroke-width="2.0" />
<line x1="276.0" y1="535.0" x2="276.0" y2="549.0" stroke="#000000" stroke-width="2.0" />
<line x1="318.0" y1="535.0" x2="318.0" y2="549.0" stroke="#000000" stroke-width="2.0" />
<line x1="318.0" y1="549.0" x2="360.0" y2="549.0" stroke="#000000" stroke-width="2.0" />
<line x1="360.0" y1="535.0" x2="360.0" y2="549.0" stroke="#000000" stroke-width="2.0" />
<line x1="402.0" y1="535.0" x2="402.0" y2="549.0" stroke="#000000" stroke-width="2.0" />
<line x1="402.0" y1="549.0" x2="444.0" y2="549.0" stroke="#000000" stroke-width="2.0" />
<line x1="444.0" y1="535.0" x2="444.0" y2="549.0" stroke="#000000" stroke-width="2.0" />
<line x1="486.0" y1="535.0" x2="486.0" y2="549.0" stroke="#000000" stroke-width="2.0" />
<line x1="486.0" y1="549.0" x2="528.0" y2="549.0" stroke="#000000" stroke-width="2.0" />
<line x1="528.0" y1="535.0" x2="528.0" y2="549.0" stroke="#000000" stroke-width="2.0" />
<line x1="570.0" y1="535.0" x2="570.0" y2="549.0" stroke="#000000" stroke-width="2.0" />
<line x1="570.0" y1="549.0" x2="612.0" y2="549.0" stroke="#000000" stroke-width="2.0" />
<line x1="612.0" y1="535.0" x2="612.0" y2="549.0" stroke="#000000" stroke-width="2.0" />
<line x1="654.0" y1="535.0" x2="654.0" y2="549.0" stroke="#000000" stroke-width="2.0" />
<line x1="654.0" y1="549.0" x2="696.0" y2="549.0" stroke="#000000" stroke-width="2.0" />
<line x1="696.0" y1="535.0" x2="696.0" y2="549.0" stroke="#000000" stroke-width="2.0" />
<line x1="738.0" y1="535.0" x2="738.0" y2="549.0" stroke="#000000" stroke-width="2.0" />
<line x1="738.0" y1="549.0" x2="780.0" y2="549.0" stroke="#000000" stroke-width="2.0" />
<line x1="780.0" y1="535.0" x2="780.0" y2="549.0" stroke="#000000" stroke-width="2.0" />
<line x1="248.0" y1="577.0" x2="808.0" y2="577.0" stroke="#000000" stroke-width="2.0" />
<line x1="360.0" y1="577.0" x2="360.0" y2="591.0" stroke="#000000" stroke-width="2.0" />
<line x1="528.0" y1="577.0" x2="528.0" y2="591.0" stroke="#000000" stroke-width="2.0" />
<line x1="612.0" y1="577.0" x2="612.0" y2="591.0" stroke="#000000" stroke-width="2.0" />
<line x1="696.0" y1="577.0" x2="696.0" y2="591.0" stroke="#000000" stroke-width="2.0" />
<line x1="248.0" y1="591.0" x2="808.0" y2="591.0" stroke="#000000" stroke-width="2.0" />
<line x1="444.0" y1="619.0" x2="696.0" y2="619.0" stroke="#000000" stroke-width="2.0" />
<line x1="248.0" y1="633.0" x2="444.0" y2="633.0" stroke="#000000" stroke-width="2.0" />
<line x1="444.0" y1="619.0" x2="444.0" y2="633.0" stroke="#000000" stroke-width="2.0" />
<line x1="696.0" y1="619.0" x2="696.0" y2="633.0" stroke="#000000" stroke-width="2.0" />
<line x1="696.0" y1="633.0" x2="808.0" y2="633.0" stroke="#000000" stroke-width="2.0" />
<line x1="360.0" y1="647.0" x2="696.0" y2="647.0" stroke="#000000" stroke-width="2.0" />
<line x1="248.0" y1="661.0" x2="360.0" y2="661.0" stroke="#000000" stroke-width="2.0" />
<line x1="360.0" y1="647.0" x2="360.0" y2="661.0" stroke="#000000" stroke-width="2.0" />
<line x1="696.0" y1="647.0" x2="696.0" y2="661.0" stroke="#000000" stroke-width="2.0" />
<line x1="696.0" y1="661.0" x2="808.0" y2="661.0" stroke="#000000" stroke-width="2.0" />
<g>
    <line x1="360.0" y1="675.0" x2="363.5" y2="685.5" stroke="#000000" stroke-width="2.0" />
    <line x1="360.0" y1="675.0" x2="356.5" y2="685.5" stroke="#000000" stroke-width="2.0" />
    <line x1="360.0" y1="675.0" x2="360.0" y2="703.0" stroke="#000000" stroke-width="2.0" />
</g>
<g>
    <line x1="374.0" y1="675.0" x2="377.5" y2="685.5" stroke="#000000" stroke-width="2.0" />
    <line x1="374.0" y1="675.0" x2="370.5" y2="685.5" stroke="#000000" stroke-width="2.0" />
    <line x1="374.0" y1="675.0" x2="374.0" y2="703.0" stroke="#000000" stroke-width="2.0" />
</g>
<g>
    <line x1="388.0" y1="675.0" x2="391.5" y2="685.5" stroke="#000000" stroke-width="2.0" />
    <line x1="388.0" y1="675.0" x2="384.5" y2="685.5" stroke="#000000" stroke-width="2.0" />
    <line x1="388.0" y1="675.0" x2="388.0" y2="703.0" stroke="#000000" stroke-width="2.0" />
</g>
<g>
    <line x1="402.0" y1="675.0" x2="405.5" y2="685.5" stroke="#000000" stroke-width="2.0" />
    <line x1="402.0" y1="675.0" x2="398.5" y2="685.5" stroke="#000000" stroke-width="2.0" />
    <line x1="402.0" y1="675.0" x2="402.0" y2="703.0" stroke="#000000" stroke-width="2.0" />
</g>
<g>
    <line x1="458.0" y1="703.0" x2="461.5" y2="713.5" stroke="#000000" stroke-width="2.0" />
    <line x1="458.0" y1="703.0" x2="454.5" y2="713.5" stroke="#000000" stroke-width="2.0" />
    <line x1="458.0" y1="703.0" x2="458.0" y2="731.0" stroke="#000000" stroke-width="2.0" />
</g>
<g>
    <line x1="472.0" y1="703.0" x2="475.5" y2="713.5" stroke="#000000" stroke-width="2.0" />
    <line x1="472.0" y1="703.0" x2="468.5" y2="713.5" stroke="#000000" stroke-width="2.0" />
    <line x1="472.0" y1="703.0" x2="472.0" y2="731.0" stroke="#000000" stroke-width="2.0" />
</g>
<g>
    <line x1="486.0" y1="703.0" x2="489.5" y2="713.5" stroke="#000000" stroke-width="2.0" />
    <line x1="486.0" y1="703.0" x2="482.5" y2="713.5" stroke="#000000" stroke-width="2.0" />
    <line x1="486.0" y1="703.0" x2="486.0" y2="731.0" stroke="#000000" stroke-width="2.0" />
</g>
<g>
    <line x1="500.0" y1="703.0" x2="503.5" y2="713.5" stroke="#000000" stroke-width="2.0" />
    <line x1="500.0" y1="703.0" x2="496.5" y2="713.5" stroke="#000000" stroke-width="2.0" />
    <line x1="500.0" y1="703.0" x2="500.0" y2="731.0" stroke="#000000" stroke-width="2.0" />
</g>
<g>
    <line x1="528.0" y1="731.0" x2="531.5" y2="741.5" stroke="#000000" stroke-width="2.0" />
    <line x1="528.0" y1="731.0" x2="524.5" y2="741.5" stroke="#000000" stroke-width="2.0" />
    <line x1="528.0" y1="731.0" x2="528.0" y2="759.0" stroke="#000000" stroke-width="2.0" />
</g>
<g>
    <line x1="542.0" y1="731.0" x2="545.5" y2="741.5" stroke="#000000" stroke-width="2.0" />
    <line x1="542.0" y1="731.0" x2="538.5" y2="741.5" stroke="#000000" stroke-width="2.0" />
    <line x1="542.0" y1="731.0" x2="542.0" y2="759.0" stroke="#000000" stroke-width="2.0" />
</g>
<g>
    <line x1="556.0" y1="731.0" x2="559.5" y2="741.5" stroke="#000000" stroke-width="2.0" />
    <line x1="556.0" y1="731.0" x2="552.5" y2="741.5" stroke="#000000" stroke-width="2.0" />
    <line x1="556.0" y1="731.0" x2="556.0" y2="759.0" stroke="#000000" stroke-width="2.0" />
</g>
<g>
    <line x1="570.0" y1="731.0" x2="573.5" y2="741.5" stroke="#000000" stroke-width="2.0" />
    <line x1="570.0" y1="731.0" x2="566.5" y2="741.5" stroke="#000000" stroke-width="2.0" />
    <line x1="570.0" y1="731.0" x2="570.0" y2="759.0" stroke="#000000" stroke-width="2.0" />
</g>
<text x="353.0" y="70.89999999999999" font-family="monospace" font-size="14.0" fill="#000000" >
  VALID
</text>
<text x="353.0" y="308.90000000000003" font-family="monospace" font-size="14.0" fill="#000000" >
  VALID
</text>
<text x="381.0" y="588.9" font-family="monospace" font-size="14.0" fill="#000000" >
  D0
</text>
<text x="549.0" y="588.9" font-family="monospace" font-size="14.0" fill="#000000" >
  D1
</text>
<text x="633.0" y="588.9" font-family="monospace" font-size="14.0" fill="#000000" >
  D2
</text>
</svg>
