<?xml version="1.0" standalone="no"?>
<!DOCTYPE svg PUBLIC "-//W3C//DTD SVG 1.1//EN" "http://www.w3.org/Graphics/SVG/1.1/DTD/svg11.dtd">

<svg width="594.0" height="160.0" viewBox="0 0 594.0 160.0" version="1.1" xmlns="http://www.w3.org/2000/svg" xmlns:xlink="http://www.w3.org/1999/xlink">
<!-- automatically generated by aafigure --><text x="129.0" y="28.900000000000002" font-family="monospace" font-size="14.0" fill="#000000" >
  adder
</text>
<text x="367.0" y="28.900000000000002" font-family="monospace" font-size="14.0" fill="#000000" >
  adder
</text>
<text x="129.0" y="112.89999999999999" font-family="monospace" font-size="14.0" fill="#000000" >
  adder
</text>
<line x1="122.0" y1="10.0" x2="234.0" y2="10.0" stroke="#000000" stroke-width="2.0" />
<line x1="360.0" y1="10.0" x2="472.0" y2="10.0" stroke="#000000" stroke-width="2.0" />
<line x1="122.0" y1="10.0" x2="122.0" y2="38.0" stroke="#000000" stroke-width="2.0" />
<line x1="234.0" y1="10.0" x2="234.0" y2="38.0" stroke="#000000" stroke-width="2.0" />
<line x1="360.0" y1="10.0" x2="360.0" y2="38.0" stroke="#000000" stroke-width="2.0" />
<line x1="472.0" y1="10.0" x2="472.0" y2="38.0" stroke="#000000" stroke-width="2.0" />
<g>
    <line x1="122.0" y1="38.0" x2="111.5" y2="41.5" stroke="#000000" stroke-width="2.0" />
    <line x1="122.0" y1="38.0" x2="111.5" y2="34.5" stroke="#000000" stroke-width="2.0" />
    <line x1="31.0" y1="38.0" x2="122.0" y2="38.0" stroke="#000000" stroke-width="4.0" />
</g>
<line x1="122.0" y1="38.0" x2="122.0" y2="52.0" stroke="#000000" stroke-width="2.0" />
<g>
    <line x1="360.0" y1="38.0" x2="349.5" y2="41.5" stroke="#000000" stroke-width="2.0" />
    <line x1="360.0" y1="38.0" x2="349.5" y2="34.5" stroke="#000000" stroke-width="2.0" />
    <line x1="234.0" y1="38.0" x2="360.0" y2="38.0" stroke="#000000" stroke-width="4.0" />
</g>
<g>
    <line x1="563.0" y1="38.0" x2="552.5" y2="41.5" stroke="#000000" stroke-width="2.0" />
    <line x1="563.0" y1="38.0" x2="552.5" y2="34.5" stroke="#000000" stroke-width="2.0" />
    <line x1="472.0" y1="38.0" x2="563.0" y2="38.0" stroke="#000000" stroke-width="4.0" />
</g>
<g>
    <line x1="122.0" y1="52.0" x2="111.5" y2="55.5" stroke="#000000" stroke-width="2.0" />
    <line x1="122.0" y1="52.0" x2="111.5" y2="48.5" stroke="#000000" stroke-width="2.0" />
    <line x1="31.0" y1="52.0" x2="122.0" y2="52.0" stroke="#000000" stroke-width="4.0" />
</g>
<line x1="122.0" y1="52.0" x2="122.0" y2="66.0" stroke="#000000" stroke-width="2.0" />
<line x1="234.0" y1="38.0" x2="234.0" y2="66.0" stroke="#000000" stroke-width="2.0" />
<line x1="360.0" y1="38.0" x2="360.0" y2="122.0" stroke="#000000" stroke-width="2.0" />
<line x1="472.0" y1="38.0" x2="472.0" y2="150.0" stroke="#000000" stroke-width="2.0" />
<line x1="122.0" y1="66.0" x2="234.0" y2="66.0" stroke="#000000" stroke-width="2.0" />
<line x1="122.0" y1="94.0" x2="234.0" y2="94.0" stroke="#000000" stroke-width="2.0" />
<line x1="122.0" y1="94.0" x2="122.0" y2="122.0" stroke="#000000" stroke-width="2.0" />
<line x1="234.0" y1="94.0" x2="234.0" y2="122.0" stroke="#000000" stroke-width="2.0" />
<g>
    <line x1="122.0" y1="122.0" x2="111.5" y2="125.5" stroke="#000000" stroke-width="2.0" />
    <line x1="122.0" y1="122.0" x2="111.5" y2="118.5" stroke="#000000" stroke-width="2.0" />
    <line x1="31.0" y1="122.0" x2="122.0" y2="122.0" stroke="#000000" stroke-width="4.0" />
</g>
<line x1="122.0" y1="122.0" x2="122.0" y2="136.0" stroke="#000000" stroke-width="2.0" />
<g>
    <line x1="360.0" y1="122.0" x2="349.5" y2="125.5" stroke="#000000" stroke-width="2.0" />
    <line x1="360.0" y1="122.0" x2="349.5" y2="118.5" stroke="#000000" stroke-width="2.0" />
    <line x1="234.0" y1="122.0" x2="360.0" y2="122.0" stroke="#000000" stroke-width="4.0" />
</g>
<g>
    <line x1="122.0" y1="136.0" x2="111.5" y2="139.5" stroke="#000000" stroke-width="2.0" />
    <line x1="122.0" y1="136.0" x2="111.5" y2="132.5" stroke="#000000" stroke-width="2.0" />
    <line x1="31.0" y1="136.0" x2="122.0" y2="136.0" stroke="#000000" stroke-width="4.0" />
</g>
<line x1="122.0" y1="136.0" x2="122.0" y2="150.0" stroke="#000000" stroke-width="2.0" />
<line x1="234.0" y1="122.0" x2="234.0" y2="150.0" stroke="#000000" stroke-width="2.0" />
<line x1="360.0" y1="122.0" x2="360.0" y2="150.0" stroke="#000000" stroke-width="2.0" />
<line x1="122.0" y1="150.0" x2="234.0" y2="150.0" stroke="#000000" stroke-width="2.0" />
<line x1="360.0" y1="150.0" x2="472.0" y2="150.0" stroke="#000000" stroke-width="2.0" />
<text x="3.0" y="42.9" font-family="monospace" font-size="14.0" fill="#000000" >
  A
</text>
<text x="577.0" y="42.9" font-family="monospace" font-size="14.0" fill="#000000" >
  Z
</text>
<text x="3.0" y="56.9" font-family="monospace" font-size="14.0" fill="#000000" >
  B
</text>
<text x="3.0" y="126.89999999999999" font-family="monospace" font-size="14.0" fill="#000000" >
  C
</text>
<text x="3.0" y="140.9" font-family="monospace" font-size="14.0" fill="#000000" >
  D
</text>
</svg>
