<?xml version="1.0" standalone="no"?>
<!DOCTYPE svg PUBLIC "-//W3C//DTD SVG 1.1//EN" "http://www.w3.org/Graphics/SVG/1.1/DTD/svg11.dtd">

<svg width="566.0" height="160.0" viewBox="0 0 566.0 160.0" version="1.1" xmlns="http://www.w3.org/2000/svg" xmlns:xlink="http://www.w3.org/1999/xlink">
<!-- automatically generated by aafigure --><line x1="108.0" y1="10.0" x2="220.0" y2="10.0" stroke="#000000" stroke-width="2.0" />
<line x1="332.0" y1="10.0" x2="444.0" y2="10.0" stroke="#000000" stroke-width="2.0" />
<line x1="108.0" y1="10.0" x2="108.0" y2="31.0" stroke="#000000" stroke-width="2.0" />
<g>
    <line x1="143.0" y1="17.0" x2="157.0" y2="31.0" stroke="#000000" stroke-width="2.0" />
    <line x1="157.0" y1="17.0" x2="157.0" y2="17.0" stroke="#000000" stroke-width="2.0" />
    <line x1="143.0" y1="24.0" x2="150.0" y2="31.0" stroke="#000000" stroke-width="2.0" />
    <line x1="150.0" y1="17.0" x2="157.0" y2="24.0" stroke="#000000" stroke-width="2.0" />
    <line x1="157.0" y1="17.0" x2="171.0" y2="31.0" stroke="#000000" stroke-width="2.0" />
    <line x1="171.0" y1="17.0" x2="171.0" y2="17.0" stroke="#000000" stroke-width="2.0" />
    <line x1="157.0" y1="24.0" x2="164.0" y2="31.0" stroke="#000000" stroke-width="2.0" />
    <line x1="164.0" y1="17.0" x2="171.0" y2="24.0" stroke="#000000" stroke-width="2.0" />
</g>
<line x1="220.0" y1="10.0" x2="220.0" y2="31.0" stroke="#000000" stroke-width="2.0" />
<line x1="332.0" y1="10.0" x2="332.0" y2="31.0" stroke="#000000" stroke-width="2.0" />
<g>
    <line x1="367.0" y1="17.0" x2="381.0" y2="31.0" stroke="#000000" stroke-width="2.0" />
    <line x1="381.0" y1="17.0" x2="381.0" y2="17.0" stroke="#000000" stroke-width="2.0" />
    <line x1="367.0" y1="24.0" x2="374.0" y2="31.0" stroke="#000000" stroke-width="2.0" />
    <line x1="374.0" y1="17.0" x2="381.0" y2="24.0" stroke="#000000" stroke-width="2.0" />
    <line x1="381.0" y1="17.0" x2="395.0" y2="31.0" stroke="#000000" stroke-width="2.0" />
    <line x1="395.0" y1="17.0" x2="395.0" y2="17.0" stroke="#000000" stroke-width="2.0" />
    <line x1="381.0" y1="24.0" x2="388.0" y2="31.0" stroke="#000000" stroke-width="2.0" />
    <line x1="388.0" y1="17.0" x2="395.0" y2="24.0" stroke="#000000" stroke-width="2.0" />
</g>
<line x1="444.0" y1="10.0" x2="444.0" y2="31.0" stroke="#000000" stroke-width="2.0" />
<g>
    <line x1="115.0" y1="38.0" x2="104.5" y2="41.5" stroke="#000000" stroke-width="2.0" />
    <line x1="115.0" y1="38.0" x2="104.5" y2="34.5" stroke="#000000" stroke-width="2.0" />
    <line x1="31.0" y1="38.0" x2="115.0" y2="38.0" stroke="#000000" stroke-width="4.0" />
</g>
<g>
    <line x1="227.0" y1="38.0" x2="216.5" y2="34.5" stroke="#000000" stroke-width="2.0" />
    <line x1="227.0" y1="38.0" x2="216.5" y2="41.5" stroke="#000000" stroke-width="2.0" />
    <line x1="339.0" y1="38.0" x2="328.5" y2="41.5" stroke="#000000" stroke-width="2.0" />
    <line x1="339.0" y1="38.0" x2="328.5" y2="34.5" stroke="#000000" stroke-width="2.0" />
    <line x1="227.0" y1="38.0" x2="339.0" y2="38.0" stroke="#000000" stroke-width="4.0" />
</g>
<g>
    <line x1="451.0" y1="38.0" x2="440.5" y2="34.5" stroke="#000000" stroke-width="2.0" />
    <line x1="451.0" y1="38.0" x2="440.5" y2="41.5" stroke="#000000" stroke-width="2.0" />
    <line x1="535.0" y1="38.0" x2="524.5" y2="41.5" stroke="#000000" stroke-width="2.0" />
    <line x1="535.0" y1="38.0" x2="524.5" y2="34.5" stroke="#000000" stroke-width="2.0" />
    <line x1="451.0" y1="38.0" x2="535.0" y2="38.0" stroke="#000000" stroke-width="4.0" />
</g>
<g>
    <line x1="115.0" y1="52.0" x2="104.5" y2="55.5" stroke="#000000" stroke-width="2.0" />
    <line x1="115.0" y1="52.0" x2="104.5" y2="48.5" stroke="#000000" stroke-width="2.0" />
    <line x1="31.0" y1="52.0" x2="115.0" y2="52.0" stroke="#000000" stroke-width="4.0" />
</g>
<line x1="220.0" y1="45.0" x2="220.0" y2="66.0" stroke="#000000" stroke-width="2.0" />
<line x1="332.0" y1="45.0" x2="332.0" y2="115.0" stroke="#000000" stroke-width="2.0" />
<line x1="444.0" y1="45.0" x2="444.0" y2="150.0" stroke="#000000" stroke-width="2.0" />
<line x1="108.0" y1="66.0" x2="220.0" y2="66.0" stroke="#000000" stroke-width="2.0" />
<line x1="108.0" y1="94.0" x2="220.0" y2="94.0" stroke="#000000" stroke-width="2.0" />
<line x1="108.0" y1="94.0" x2="108.0" y2="115.0" stroke="#000000" stroke-width="2.0" />
<g>
    <line x1="143.0" y1="101.0" x2="157.0" y2="115.0" stroke="#000000" stroke-width="2.0" />
    <line x1="157.0" y1="101.0" x2="157.0" y2="101.0" stroke="#000000" stroke-width="2.0" />
    <line x1="143.0" y1="108.0" x2="150.0" y2="115.0" stroke="#000000" stroke-width="2.0" />
    <line x1="150.0" y1="101.0" x2="157.0" y2="108.0" stroke="#000000" stroke-width="2.0" />
    <line x1="157.0" y1="101.0" x2="171.0" y2="115.0" stroke="#000000" stroke-width="2.0" />
    <line x1="171.0" y1="101.0" x2="171.0" y2="101.0" stroke="#000000" stroke-width="2.0" />
    <line x1="157.0" y1="108.0" x2="164.0" y2="115.0" stroke="#000000" stroke-width="2.0" />
    <line x1="164.0" y1="101.0" x2="171.0" y2="108.0" stroke="#000000" stroke-width="2.0" />
</g>
<line x1="220.0" y1="94.0" x2="220.0" y2="115.0" stroke="#000000" stroke-width="2.0" />
<g>
    <line x1="115.0" y1="122.0" x2="104.5" y2="125.5" stroke="#000000" stroke-width="2.0" />
    <line x1="115.0" y1="122.0" x2="104.5" y2="118.5" stroke="#000000" stroke-width="2.0" />
    <line x1="31.0" y1="122.0" x2="115.0" y2="122.0" stroke="#000000" stroke-width="4.0" />
</g>
<g>
    <line x1="227.0" y1="122.0" x2="216.5" y2="118.5" stroke="#000000" stroke-width="2.0" />
    <line x1="227.0" y1="122.0" x2="216.5" y2="125.5" stroke="#000000" stroke-width="2.0" />
    <line x1="339.0" y1="122.0" x2="328.5" y2="125.5" stroke="#000000" stroke-width="2.0" />
    <line x1="339.0" y1="122.0" x2="328.5" y2="118.5" stroke="#000000" stroke-width="2.0" />
    <line x1="227.0" y1="122.0" x2="339.0" y2="122.0" stroke="#000000" stroke-width="4.0" />
</g>
<g>
    <line x1="115.0" y1="136.0" x2="104.5" y2="139.5" stroke="#000000" stroke-width="2.0" />
    <line x1="115.0" y1="136.0" x2="104.5" y2="132.5" stroke="#000000" stroke-width="2.0" />
    <line x1="31.0" y1="136.0" x2="115.0" y2="136.0" stroke="#000000" stroke-width="4.0" />
</g>
<line x1="220.0" y1="129.0" x2="220.0" y2="150.0" stroke="#000000" stroke-width="2.0" />
<line x1="332.0" y1="129.0" x2="332.0" y2="150.0" stroke="#000000" stroke-width="2.0" />
<line x1="108.0" y1="150.0" x2="220.0" y2="150.0" stroke="#000000" stroke-width="2.0" />
<line x1="332.0" y1="150.0" x2="444.0" y2="150.0" stroke="#000000" stroke-width="2.0" />
<text x="129.0" y="28.900000000000002" font-family="monospace" font-size="14.0" fill="#000000" >
  a
</text>
<text x="171.0" y="28.900000000000002" font-family="monospace" font-size="14.0" fill="#000000" >
  er
</text>
<text x="353.0" y="28.900000000000002" font-family="monospace" font-size="14.0" fill="#000000" >
  a
</text>
<text x="395.0" y="28.900000000000002" font-family="monospace" font-size="14.0" fill="#000000" >
  er
</text>
<text x="3.0" y="42.9" font-family="monospace" font-size="14.0" fill="#000000" >
  A
</text>
<text x="549.0" y="42.9" font-family="monospace" font-size="14.0" fill="#000000" >
  Z
</text>
<text x="3.0" y="56.9" font-family="monospace" font-size="14.0" fill="#000000" >
  B
</text>
<text x="129.0" y="112.89999999999999" font-family="monospace" font-size="14.0" fill="#000000" >
  a
</text>
<text x="171.0" y="112.89999999999999" font-family="monospace" font-size="14.0" fill="#000000" >
  er
</text>
<text x="3.0" y="126.89999999999999" font-family="monospace" font-size="14.0" fill="#000000" >
  C
</text>
<text x="3.0" y="140.9" font-family="monospace" font-size="14.0" fill="#000000" >
  D
</text>
</svg>
