<?xml version="1.0" standalone="no"?>
<!DOCTYPE svg PUBLIC "-//W3C//DTD SVG 1.1//EN" "http://www.w3.org/Graphics/SVG/1.1/DTD/svg11.dtd">

<svg width="846.0" height="258.0" viewBox="0 0 846.0 258.0" version="1.1" xmlns="http://www.w3.org/2000/svg" xmlns:xlink="http://www.w3.org/1999/xlink">
<!-- automatically generated by aafigure --><text x="381.0" y="154.9" font-family="monospace" font-size="14.0" fill="#000000" >
  &lt;bus_name&gt;
</text>
<text x="381.0" y="182.9" font-family="monospace" font-size="14.0" fill="#000000" >
  &lt;bus_name&gt;_stb
</text>
<text x="381.0" y="210.9" font-family="monospace" font-size="14.0" fill="#000000" >
  &lt;bus_name&gt;_ack
</text>
<g>
    <line x1="73.0" y1="10.0" x2="62.5" y2="6.5" stroke="#000000" stroke-width="2.0" />
    <line x1="73.0" y1="10.0" x2="62.5" y2="13.5" stroke="#000000" stroke-width="2.0" />
    <circle cx="94.0" cy="10.0" r="3.5" stroke="#000000" stroke-width="2.0" fill="#000000" />    <line x1="73.0" y1="10.0" x2="94.0" y2="10.0" stroke="#000000" stroke-width="2.0" />
</g>
<g>
    <circle cx="94.0" cy="10.0" r="3.5" stroke="#000000" stroke-width="2.0" fill="#000000" />    <line x1="94.0" y1="10.0" x2="528.0" y2="10.0" stroke="#000000" stroke-width="2.0" />
</g>
<g>
    <circle cx="94.0" cy="10.0" r="3.5" stroke="#000000" stroke-width="2.0" fill="#000000" />    <line x1="94.0" y1="10.0" x2="94.0" y2="38.0" stroke="#000000" stroke-width="2.0" />
</g>
<line x1="528.0" y1="10.0" x2="528.0" y2="94.0" stroke="#000000" stroke-width="2.0" />
<g>
    <line x1="73.0" y1="38.0" x2="62.5" y2="34.5" stroke="#000000" stroke-width="2.0" />
    <line x1="73.0" y1="38.0" x2="62.5" y2="41.5" stroke="#000000" stroke-width="2.0" />
    <line x1="73.0" y1="38.0" x2="94.0" y2="38.0" stroke="#000000" stroke-width="2.0" />
</g>
<g>
    <circle cx="136.0" cy="38.0" r="3.5" stroke="#000000" stroke-width="2.0" fill="#000000" />    <line x1="94.0" y1="38.0" x2="136.0" y2="38.0" stroke="#000000" stroke-width="2.0" />
</g>
<g>
    <circle cx="136.0" cy="38.0" r="3.5" stroke="#000000" stroke-width="2.0" fill="#000000" />    <line x1="136.0" y1="38.0" x2="486.0" y2="38.0" stroke="#000000" stroke-width="2.0" />
</g>
<line x1="94.0" y1="38.0" x2="94.0" y2="122.0" stroke="#000000" stroke-width="2.0" />
<g>
    <circle cx="136.0" cy="38.0" r="3.5" stroke="#000000" stroke-width="2.0" fill="#000000" />    <line x1="136.0" y1="38.0" x2="136.0" y2="94.0" stroke="#000000" stroke-width="2.0" />
</g>
<line x1="486.0" y1="38.0" x2="486.0" y2="122.0" stroke="#000000" stroke-width="2.0" />
<line x1="192.0" y1="66.0" x2="360.0" y2="66.0" stroke="#000000" stroke-width="2.0" />
<line x1="626.0" y1="66.0" x2="836.0" y2="66.0" stroke="#000000" stroke-width="2.0" />
<line x1="192.0" y1="66.0" x2="192.0" y2="94.0" stroke="#000000" stroke-width="2.0" />
<line x1="360.0" y1="66.0" x2="360.0" y2="164.0" stroke="#000000" stroke-width="2.0" />
<line x1="626.0" y1="66.0" x2="626.0" y2="94.0" stroke="#000000" stroke-width="2.0" />
<line x1="836.0" y1="66.0" x2="836.0" y2="248.0" stroke="#000000" stroke-width="2.0" />
<g>
    <line x1="192.0" y1="94.0" x2="181.5" y2="97.5" stroke="#000000" stroke-width="2.0" />
    <line x1="192.0" y1="94.0" x2="181.5" y2="90.5" stroke="#000000" stroke-width="2.0" />
    <line x1="136.0" y1="94.0" x2="192.0" y2="94.0" stroke="#000000" stroke-width="2.0" />
</g>
<g>
    <line x1="626.0" y1="94.0" x2="615.5" y2="97.5" stroke="#000000" stroke-width="2.0" />
    <line x1="626.0" y1="94.0" x2="615.5" y2="90.5" stroke="#000000" stroke-width="2.0" />
    <line x1="528.0" y1="94.0" x2="626.0" y2="94.0" stroke="#000000" stroke-width="2.0" />
</g>
<line x1="192.0" y1="94.0" x2="192.0" y2="122.0" stroke="#000000" stroke-width="2.0" />
<line x1="626.0" y1="94.0" x2="626.0" y2="122.0" stroke="#000000" stroke-width="2.0" />
<g>
    <line x1="192.0" y1="122.0" x2="181.5" y2="125.5" stroke="#000000" stroke-width="2.0" />
    <line x1="192.0" y1="122.0" x2="181.5" y2="118.5" stroke="#000000" stroke-width="2.0" />
    <line x1="94.0" y1="122.0" x2="192.0" y2="122.0" stroke="#000000" stroke-width="2.0" />
</g>
<g>
    <line x1="626.0" y1="122.0" x2="615.5" y2="125.5" stroke="#000000" stroke-width="2.0" />
    <line x1="626.0" y1="122.0" x2="615.5" y2="118.5" stroke="#000000" stroke-width="2.0" />
    <line x1="486.0" y1="122.0" x2="626.0" y2="122.0" stroke="#000000" stroke-width="2.0" />
</g>
<line x1="192.0" y1="122.0" x2="192.0" y2="248.0" stroke="#000000" stroke-width="2.0" />
<line x1="626.0" y1="122.0" x2="626.0" y2="164.0" stroke="#000000" stroke-width="2.0" />
<g>
    <line x1="626.0" y1="164.0" x2="615.5" y2="167.5" stroke="#000000" stroke-width="2.0" />
    <line x1="626.0" y1="164.0" x2="615.5" y2="160.5" stroke="#000000" stroke-width="2.0" />
    <line x1="360.0" y1="164.0" x2="626.0" y2="164.0" stroke="#000000" stroke-width="4.0" />
</g>
<line x1="360.0" y1="164.0" x2="360.0" y2="192.0" stroke="#000000" stroke-width="2.0" />
<line x1="626.0" y1="164.0" x2="626.0" y2="192.0" stroke="#000000" stroke-width="2.0" />
<g>
    <line x1="626.0" y1="192.0" x2="615.5" y2="195.5" stroke="#000000" stroke-width="2.0" />
    <line x1="626.0" y1="192.0" x2="615.5" y2="188.5" stroke="#000000" stroke-width="2.0" />
    <line x1="360.0" y1="192.0" x2="626.0" y2="192.0" stroke="#000000" stroke-width="2.0" />
</g>
<line x1="360.0" y1="192.0" x2="360.0" y2="220.0" stroke="#000000" stroke-width="2.0" />
<line x1="626.0" y1="192.0" x2="626.0" y2="220.0" stroke="#000000" stroke-width="2.0" />
<g>
    <line x1="360.0" y1="220.0" x2="370.5" y2="216.5" stroke="#000000" stroke-width="2.0" />
    <line x1="360.0" y1="220.0" x2="370.5" y2="223.5" stroke="#000000" stroke-width="2.0" />
    <line x1="360.0" y1="220.0" x2="626.0" y2="220.0" stroke="#000000" stroke-width="2.0" />
</g>
<line x1="360.0" y1="220.0" x2="360.0" y2="248.0" stroke="#000000" stroke-width="2.0" />
<line x1="626.0" y1="220.0" x2="626.0" y2="248.0" stroke="#000000" stroke-width="2.0" />
<line x1="192.0" y1="248.0" x2="360.0" y2="248.0" stroke="#000000" stroke-width="2.0" />
<line x1="626.0" y1="248.0" x2="836.0" y2="248.0" stroke="#000000" stroke-width="2.0" />
<text x="3.0" y="14.9" font-family="monospace" font-size="14.0" fill="#000000" >
  rst
</text>
<text x="3.0" y="42.9" font-family="monospace" font-size="14.0" fill="#000000" >
  clk
</text>
<text x="213.0" y="84.89999999999999" font-family="monospace" font-size="14.0" fill="#000000" >
  TX
</text>
<text x="647.0" y="84.89999999999999" font-family="monospace" font-size="14.0" fill="#000000" >
  RX
</text>
</svg>
